<svg xmlns="http://www.w3.org/2000/svg" width="90" height="90" viewBox="0 0 90 90"><defs><style>.a{fill:#fff;}.b{fill:#f54336;}.c{fill:#f2453d;}</style></defs><g transform="translate(-852 -208)"><circle class="a" cx="45" cy="45" r="45" transform="translate(852 208)"/><path class="b" d="M45,90A45.012,45.012,0,0,1,27.484,3.536,45.012,45.012,0,0,1,62.516,86.464,44.718,44.718,0,0,1,45,90ZM45,4A41.011,41.011,0,0,0,29.041,82.778,41.011,41.011,0,0,0,60.959,7.222,40.744,40.744,0,0,0,45,4Z" transform="translate(852 208)"/><rect class="c" width="22" height="22" rx="4" transform="translate(886 242)"/></g></svg>